<svg width="60" height="72" viewBox="0 0 68 81" fill="none" xmlns="http://www.w3.org/2000/svg">
<g filter="url(#filter0_d_214_4955)">
<path d="M35.7553 72.3441C35.392 74.1218 34.3935 75.0105 33.0313 75.0105C31.215 75.0105 30.8292 73.8781 30.3068 72.3441C29.7844 70.8102 29.8303 68.7887 26.6742 65.2335C24.7014 63.0113 23.4961 62.1223 19.863 59.9004C6.7567 51.8849 2.91021 38.4204 3.06157 32.3467C2.154 22.1251 11.2385 2.65982 33.0308 3.0153C60.276 3.45973 63 27.458 63 33.2356C63 46.0348 51.7994 56.3452 46.1991 59.9005C44.0195 60.9671 42.1129 62.5669 39.3884 65.2335C36.2098 69.2331 36.1185 70.5665 35.7553 72.3441Z" fill="#26EC2E"/>
<path d="M45.9483 46.5654C45.9483 46.5654 43.0976 42.0428 43.0347 41.9203C42.7698 41.4043 42.8496 41.2487 43.0346 40.8883L43.0347 40.8881C43.2198 40.5276 44.359 40.8881 45.1536 40.8881C45.9483 39.3398 47.2727 37.7914 47.0078 35.4689C46.478 34.6947 45.7525 34.6947 45.6834 33.1464C45.6143 31.5981 46.478 31.34 47.0078 30.5658C46.7429 28.5014 46.478 26.953 45.1536 25.4047C43.8292 25.1466 42.9655 25.7643 41.7102 24.3725C40.6507 23.1977 40.9156 22.8241 40.9156 21.5338C39.8561 20.5016 38.0019 19.4694 35.618 19.2113C34.5585 19.7274 34.7348 20.689 32.9692 20.7597C31.2037 20.8304 30.5853 19.4694 30.0555 19.2113C28.7312 19.2113 26.3472 19.9855 25.0229 21.2758C24.4931 22.308 25.353 23.1525 24.2282 24.3725C23.288 25.3922 21.8443 25.4047 20.7848 25.4047C19.9902 26.695 19.1955 28.5014 18.9306 30.3078C19.4604 31.5981 20.2892 31.9292 20.255 33.1464C20.2197 34.4087 19.4604 34.9528 18.6658 35.985C19.1955 38.0495 19.4604 39.0817 20.7848 40.6301C22.3741 40.8881 22.9609 40.843 23.9633 41.6623C24.6451 42.2194 25.2877 43.4687 25.2877 43.4687L30.3204 35.2109L29.7907 33.1464C29.5258 31.8561 30.4264 30.0497 32.9692 30.0497C35.512 30.0497 36.1478 32.0282 36.1478 33.1464L35.8829 35.2109L42.7697 47.3396C43.3878 48.6298 45.1536 50.9523 43.2995 51.7265C42.0677 52.2408 40.2976 49.8341 39.5912 48.6298C39.5912 48.6298 37.4722 49.6621 35.8829 49.6621C35.0882 50.6943 34.1927 51.8262 32.7043 51.7265C31.0244 51.614 29.7876 50.2704 29.7907 48.6298C29.7938 46.9196 31.2173 45.6414 32.9692 45.5332C34.2166 45.4561 35.618 46.8234 35.618 46.8234C35.618 46.8234 38.5317 46.8234 38.2668 45.7912C37.2073 43.7267 32.9692 36.5012 32.9692 36.5012L26.0824 48.6298C25.4643 49.7481 25.5526 49.9201 24.758 50.9523C23.2927 52.8557 21.3146 51.4685 21.5794 50.1782L23.4336 47.0815C23.4336 47.0815 21.8112 47.8557 19.9902 46.5654C18.1691 45.2751 18.6658 42.6945 18.6658 42.6945C16.2819 40.1139 15.7521 35.985 15.7521 35.985C15.7521 35.985 13.8979 34.9443 13.8979 33.1464C13.8979 31.5981 15.0922 31.4538 15.7521 30.3078C15.4872 28.7594 17.8711 23.8563 18.6658 23.3402C18.9306 22.5661 18.4009 21.0177 19.4604 19.9855C20.5199 18.9533 23.1687 19.2113 23.1687 19.2113C25.0229 17.663 28.4663 16.3727 30.0555 16.3727C30.8502 14.5663 32.4395 14.5663 32.9692 14.5663C33.499 14.5663 34.5585 14.3082 35.6181 16.3727C37.949 16.3727 41.5337 18.4371 43.0347 19.4694C43.0347 19.4694 44.8888 18.9533 45.9483 19.7274C45.9483 19.7274 48.0673 20.5016 47.2728 23.5983C50.4513 27.4691 49.3917 29.5336 49.9215 30.5658C51.2458 31.0819 52.0406 31.5981 52.0406 33.1464C52.0406 34.8108 50.7162 35.727 50.1863 35.985C49.6566 39.8559 47.2727 42.9526 47.2727 42.9526C47.2727 45.5332 46.5663 46.3933 45.9483 46.5654Z" fill="white" stroke="#F2E2CE"/>
</g>
<defs>
<filter id="filter0_d_214_4955" x="0" y="0.010498" width="68" height="80" filterUnits="userSpaceOnUse" color-interpolation-filters="sRGB">
<feFlood flood-opacity="0" result="BackgroundImageFix"/>
<feColorMatrix in="SourceAlpha" type="matrix" values="0 0 0 0 0 0 0 0 0 0 0 0 0 0 0 0 0 0 127 0" result="hardAlpha"/>
<feOffset dx="1" dy="1"/>
<feGaussianBlur stdDeviation="2"/>
<feComposite in2="hardAlpha" operator="out"/>
<feColorMatrix type="matrix" values="0 0 0 0 0 0 0 0 0 0 0 0 0 0 0 0 0 0 0.5 0"/>
<feBlend mode="normal" in2="BackgroundImageFix" result="effect1_dropShadow_214_4955"/>
<feBlend mode="normal" in="SourceGraphic" in2="effect1_dropShadow_214_4955" result="shape"/>
</filter>
</defs>
</svg>
