<svg width="22" height="22" viewBox="0 0 22 22" fill="none" xmlns="http://www.w3.org/2000/svg">
<path d="M19.4203 21H2.51515C1.66667 21 1.15152 19.9655 1 19.4482V2.51515C1 1.54545 2.0101 1.10101 2.51515 1H19.4848C20.4545 1 20.899 2.0101 21 2.51515V19.4848C21 20.4545 19.9469 20.899 19.4203 21Z" fill="black" stroke="black"/>
<path d="M19.182 6.45472H2.81836V2.81836H19.182V6.45472Z" fill="white" stroke="black"/>
<circle cx="7.36368" cy="10.0907" r="0.909091" fill="white"/>
<circle cx="10.9999" cy="10.0907" r="0.909091" fill="white"/>
<circle cx="14.6361" cy="10.0907" r="0.909091" fill="white"/>
<circle cx="18.2729" cy="10.0907" r="0.909091" fill="white"/>
<circle cx="18.2729" cy="13.7275" r="0.909091" fill="white"/>
<circle cx="14.6361" cy="13.7275" r="0.909091" fill="white"/>
<circle cx="10.9999" cy="13.7275" r="0.909091" fill="white"/>
<circle cx="7.36368" cy="13.7275" r="0.909091" fill="white"/>
<circle cx="3.72745" cy="13.7275" r="0.909091" fill="white"/>
<circle cx="14.6361" cy="17.3637" r="0.909091" fill="white"/>
<circle cx="10.9999" cy="17.3637" r="0.909091" fill="white"/>
<circle cx="7.36368" cy="17.3637" r="0.909091" fill="white"/>
<circle cx="3.72745" cy="17.3637" r="0.909091" fill="white"/>
</svg>
