<svg width="60" height="72" viewBox="0 0 68 80" fill="none" xmlns="http://www.w3.org/2000/svg">
<g filter="url(#filter0_d_214_1141)">
<path d="M35.7553 72.3389C35.392 74.1166 34.3935 75.0052 33.0313 75.0052C31.215 75.0052 30.8292 73.8729 30.3068 72.3389C29.7844 70.8049 29.8303 68.7834 26.6742 65.2282C24.7014 63.006 23.4961 62.1171 19.863 59.8951C6.7567 51.8796 2.91021 38.4152 3.06157 32.3415C2.154 22.1199 11.2385 2.65457 33.0308 3.01005C60.276 3.45448 63 27.4528 63 33.2303C63 46.0296 51.7994 56.34 46.1991 59.8953C44.0195 60.9619 42.1129 62.5616 39.3884 65.2282C36.2098 69.2278 36.1185 70.5612 35.7553 72.3389Z" fill="#1A0EA0"/>
<path d="M17.1293 44.5349H52.4756V46.6771C52.4756 47.0341 52.7969 47.7482 54.0822 47.7482C55.3675 47.7482 55.6888 46.8556 55.6888 46.4093V37.8405C55.6888 36.5552 54.6177 36.4124 54.0822 36.5017V31.6817C54.0822 28.8969 50.5119 27.3081 48.7267 26.8618H26.5014C25.4303 27.3973 24.8948 27.9329 24.3592 28.7362C23.7165 27.4509 21.2352 26.951 20.0748 26.8618H17.1293V18.5608C17.1293 18.1145 16.808 17.2219 15.5226 17.2219C14.2373 17.2219 13.916 18.1145 13.9161 18.5608V46.4093C13.8268 46.8556 14.0232 47.7482 15.5227 47.7482C17.0222 47.7482 17.2186 46.8556 17.1293 46.4093V44.5349Z" fill="white" stroke="#F2E2CE"/>
<path d="M50.8689 36.5016H26.7692V31.6817C26.7692 30.3964 27.8403 30.0751 28.3758 30.0751H48.1911C49.9049 30.0751 50.6904 31.6817 50.8689 32.485V36.5016Z" fill="#1A0EA0"/>
<path d="M23.5559 34.3595V36.5016H23.0204H20.8782C18.7361 36.5016 17.4864 33.4669 17.1293 31.9495V30.0751H19.0037C21.9492 30.0751 23.5559 33.0206 23.5559 34.3595Z" fill="#1A0EA0"/>
</g>
<defs>
<filter id="filter0_d_214_1141" x="0" y="0.00524902" width="68" height="80" filterUnits="userSpaceOnUse" color-interpolation-filters="sRGB">
<feFlood flood-opacity="0" result="BackgroundImageFix"/>
<feColorMatrix in="SourceAlpha" type="matrix" values="0 0 0 0 0 0 0 0 0 0 0 0 0 0 0 0 0 0 127 0" result="hardAlpha"/>
<feOffset dx="1" dy="1"/>
<feGaussianBlur stdDeviation="2"/>
<feComposite in2="hardAlpha" operator="out"/>
<feColorMatrix type="matrix" values="0 0 0 0 0 0 0 0 0 0 0 0 0 0 0 0 0 0 0.5 0"/>
<feBlend mode="normal" in2="BackgroundImageFix" result="effect1_dropShadow_214_1141"/>
<feBlend mode="normal" in="SourceGraphic" in2="effect1_dropShadow_214_1141" result="shape"/>
</filter>
</defs>
</svg>
