<svg width="60" height="72" viewBox="0 0 68 80" fill="none" xmlns="http://www.w3.org/2000/svg">
<g filter="url(#filter0_d_214_1139)">
<path d="M35.7553 72.3336C35.392 74.1113 34.3935 75 33.0313 75C31.215 75 30.8292 73.8676 30.3068 72.3336C29.7844 70.7997 29.8303 68.7782 26.6742 65.223C24.7014 63.0008 23.4961 62.1118 19.863 59.8899C6.7567 51.8744 2.91021 38.4099 3.06157 32.3362C2.154 22.1146 11.2385 2.64932 33.0308 3.0048C60.276 3.44924 63 27.4475 63 33.2251C63 46.0243 51.7994 56.3347 46.1991 59.89C44.0195 60.9566 42.1129 62.5564 39.3884 65.223C36.2098 69.2226 36.1185 70.556 35.7553 72.3336Z" fill="#F9AC51"/>
<path d="M27.1522 46.5931C27.1522 48.1509 25.8616 48.3961 25.2164 48.3239C23.8398 48.3239 23.3523 47.1701 23.2806 46.5931V30.1023C22.0617 29.5414 19.581 27.7272 19.4089 24.9579V23.0107C19.8391 20.1982 20.2693 14.573 21.5598 14.573C22.0761 14.573 21.99 15.5105 21.99 15.6548V23.0107C22.0617 23.2271 22.3342 23.6598 22.8504 23.6598C23.3666 23.6598 23.639 23.2271 23.7107 23.0107C23.9258 20.2703 23.9918 14.573 25.2164 14.573C26.5069 14.573 26.5069 19.8376 26.722 22.578C26.7937 22.9386 27.0661 23.6598 27.5824 23.6598C28.0986 23.6598 28.371 23.0828 28.4427 22.7944V15.6548C28.4427 14.3566 28.8729 14.573 29.088 14.573C29.9483 14.573 30.8087 19.3327 31.0238 21.7126V24.5252C31.0238 27.4676 28.4427 29.6455 27.1522 30.3667V46.5931Z" fill="white"/>
<path d="M43.9292 46.5931C43.9292 48.3239 42.6387 48.3239 41.9934 48.3239C40.7028 48.3239 40.0576 47.2422 40.0576 46.5931V39.8862V33.8283C38.5089 33.4822 37.6916 31.5206 37.4765 30.5831C37.398 30.2411 37.2614 28.8522 37.4765 26.0397C37.7569 22.3725 41.3481 14.573 42.6387 14.573C43.6711 14.573 43.9292 15.4384 43.9292 15.8711V46.5931Z" fill="white"/>
<path d="M27.1522 46.5931C27.1522 48.1509 25.8616 48.3961 25.2164 48.3239C23.8398 48.3239 23.3523 47.1701 23.2806 46.5931V30.1023C22.0617 29.5414 19.581 27.7272 19.4089 24.9579V23.0107C19.8391 20.1982 20.2693 14.573 21.5598 14.573C22.0761 14.573 21.99 15.5105 21.99 15.6548V23.0107C22.0617 23.2271 22.3342 23.6598 22.8504 23.6598C23.3666 23.6598 23.639 23.2271 23.7107 23.0107C23.9258 20.2703 23.9918 14.573 25.2164 14.573C26.5069 14.573 26.5069 19.8376 26.722 22.578C26.7937 22.9386 27.0661 23.6598 27.5824 23.6598C28.0986 23.6598 28.371 23.0828 28.4427 22.7944V15.6548C28.4427 14.3566 28.8729 14.573 29.088 14.573C29.9483 14.573 30.8087 19.3327 31.0238 21.7126V24.5252C31.0238 27.4676 28.4427 29.6455 27.1522 30.3667V46.5931Z" stroke="#F2E2CE"/>
<path d="M43.9292 46.5931C43.9292 48.3239 42.6387 48.3239 41.9934 48.3239C40.7028 48.3239 40.0576 47.2422 40.0576 46.5931V39.8862V33.8283C38.5089 33.4822 37.6916 31.5206 37.4765 30.5831C37.398 30.2411 37.2614 28.8522 37.4765 26.0397C37.7569 22.3725 41.3481 14.573 42.6387 14.573C43.6711 14.573 43.9292 15.4384 43.9292 15.8711V46.5931Z" stroke="#F2E2CE"/>
</g>
<defs>
<filter id="filter0_d_214_1139" x="0" y="0" width="68" height="80" filterUnits="userSpaceOnUse" color-interpolation-filters="sRGB">
<feFlood flood-opacity="0" result="BackgroundImageFix"/>
<feColorMatrix in="SourceAlpha" type="matrix" values="0 0 0 0 0 0 0 0 0 0 0 0 0 0 0 0 0 0 127 0" result="hardAlpha"/>
<feOffset dx="1" dy="1"/>
<feGaussianBlur stdDeviation="2"/>
<feComposite in2="hardAlpha" operator="out"/>
<feColorMatrix type="matrix" values="0 0 0 0 0 0 0 0 0 0 0 0 0 0 0 0 0 0 0.5 0"/>
<feBlend mode="normal" in2="BackgroundImageFix" result="effect1_dropShadow_214_1139"/>
<feBlend mode="normal" in="SourceGraphic" in2="effect1_dropShadow_214_1139" result="shape"/>
</filter>
</defs>
</svg>
