<svg width="30" height="30" viewBox="0 0 30 30" fill="none" xmlns="http://www.w3.org/2000/svg">
<path d="M20.8751 26.76V29H1.04175V28.6267V28.6265C1.04179 28.2533 1.04179 28.2531 1.43064 26.3867C1.96178 23.8372 4.10845 23.4917 5.31953 23.0267C6.29175 22.6533 9.20842 21.5956 10.5695 21.16C11.3473 22.0933 11.7362 22.6533 12.3195 24.8933C12.7835 26.6749 13.2917 27.4444 13.6806 28.2533V25.2667C13.7455 25.0178 14.1084 24.52 15.0417 24.52C15.9751 24.52 16.338 25.0178 16.4029 25.2667V28.2533C16.6621 27.7556 17.2973 26.3867 17.764 24.8933C18.2306 23.4 19.1251 21.7822 19.514 21.16C20.4214 21.4089 22.7806 22.1307 24.9584 23.0267C27.6806 24.1467 28.264 25.64 28.6529 26.3867C28.964 26.984 29.0417 28.1289 29.0417 28.6267V29H25.5417V26.76H20.8751Z" fill="black"/>
<path d="M16.2084 22.28C16.2084 23.3253 15.4306 23.4622 15.0417 23.4C14.1084 23.4 13.8751 22.6533 13.8751 22.28V21.16C12.7862 21.16 11.8658 20.2889 11.5417 19.8533V17.8C10.8936 17.5511 9.5973 15.7467 9.5973 14.44C9.07879 14.44 8.04175 14.0667 8.04175 12.5733C8.04175 11.528 8.56027 11.3911 8.81953 11.4533V9.96H21.264V11.4533C21.4584 11.2667 22.0417 11.4938 22.0417 12.5733C22.0417 14.0667 20.4862 14.44 20.4862 14.44C20.4862 16.0827 19.1899 17.3644 18.5417 17.8V20.04C18.5417 20.6373 16.9862 21.0356 16.2084 21.16V22.28Z" fill="black"/>
<path d="M21.264 7.72H8.81953C8.94916 6.22667 9.20842 3.016 9.20842 2.12C9.20842 1.224 9.98619 1 10.3751 1H19.7084C20.6806 1 20.6806 1.93333 20.8751 2.49333C21.0306 2.94133 21.1992 6.16444 21.264 7.72Z" fill="black"/>
<path d="M20.8751 26.76V29H1.04175V28.6267V28.6265C1.04179 28.2533 1.04179 28.2531 1.43064 26.3867C1.96178 23.8372 4.10845 23.4917 5.31953 23.0267C6.29175 22.6533 9.20842 21.5956 10.5695 21.16C11.3473 22.0933 11.7362 22.6533 12.3195 24.8933C12.7835 26.6749 13.2917 27.4444 13.6806 28.2533V25.2667C13.7455 25.0178 14.1084 24.52 15.0417 24.52C15.9751 24.52 16.338 25.0178 16.4029 25.2667V28.2533C16.6621 27.7556 17.2973 26.3867 17.764 24.8933C18.2306 23.4 19.1251 21.7822 19.514 21.16C20.4214 21.4089 22.7806 22.1307 24.9584 23.0267C27.6806 24.1467 28.264 25.64 28.6529 26.3867C28.964 26.984 29.0417 28.1289 29.0417 28.6267V29H25.5417V26.76H20.8751Z" stroke="black"/>
<path d="M16.2084 22.28C16.2084 23.3253 15.4306 23.4622 15.0417 23.4C14.1084 23.4 13.8751 22.6533 13.8751 22.28V21.16C12.7862 21.16 11.8658 20.2889 11.5417 19.8533V17.8C10.8936 17.5511 9.5973 15.7467 9.5973 14.44C9.07879 14.44 8.04175 14.0667 8.04175 12.5733C8.04175 11.528 8.56027 11.3911 8.81953 11.4533V9.96H21.264V11.4533C21.4584 11.2667 22.0417 11.4938 22.0417 12.5733C22.0417 14.0667 20.4862 14.44 20.4862 14.44C20.4862 16.0827 19.1899 17.3644 18.5417 17.8V20.04C18.5417 20.6373 16.9862 21.0356 16.2084 21.16V22.28Z" stroke="black"/>
<path d="M21.264 7.72H8.81953C8.94916 6.22667 9.20842 3.016 9.20842 2.12C9.20842 1.224 9.98619 1 10.3751 1H19.7084C20.6806 1 20.6806 1.93333 20.8751 2.49333C21.0306 2.94133 21.1992 6.16444 21.264 7.72Z" stroke="black"/>
</svg>
